<svg xmlns="http://www.w3.org/2000/svg" version="1.1" xmlns:xlink="http://www.w3.org/1999/xlink" viewBox="3.5 1.5 14.5 3.5"><g transform="matrix(0.7342404236990746,0,0,0.7342404236990746,10.477618751617843,2.5002517391425494)"><g transform="matrix(1,0,0,1,0,0)" clip-path="url(#SvgjsClipPath22185)"><g clip-path="url(#SvgjsClipPath22183d7c35abe-a4d0-4953-a7ca-20c1d52ad1c0)"><path d=" M -0.4654555684803068 3.0241525250929 L -9.143596049098502 3.0241525250929 L -9.143596049098502 2.7894196379077014 L -0.4654555684803068 2.7894196379077014 Z" fill="#c4c5c5" transform="matrix(1,0,0,1,0,0)" fill-rule="nonzero"></path></g><g clip-path="url(#ac99cbb4f-0a71-4fec-b619-fb2643d57e2cd7c35abe-a4d0-4953-a7ca-20c1d52ad1c0)"><path d=" M -8.53776593369926 1.6124090502954294 C -8.628143204555146 1.8578038990648678 -8.628143204555146 2.122215696858828 -8.53776593369926 2.3676451848796765 L -4.363514447490399 2.3676451848796765 C -4.2729362689763315 2.122215696858828 -4.2729362689763315 1.8578038990648678 -4.363514447490399 1.6124090502954294 Z" fill="#bee7f7" transform="matrix(1,0,0,1,0,0)" fill-rule="nonzero"></path></g><g clip-path="url(#ac99cbb4f-0a71-4fec-b619-fb2643d57e2cd7c35abe-a4d0-4953-a7ca-20c1d52ad1c0)"><path d=" M -8.241357859377157 1.6124090502954294 C -8.301152135162457 1.857838538316278 -8.300272298176623 2.1231648123474836 -8.238846513649875 2.3676451848796765 L -8.326511531120294 2.3676451848796765 C -8.38474704059211 2.122520522271243 -8.385564526925403 1.858448189141108 -8.32867994825861 1.6124090502954294 Z" fill="#fffef2" transform="matrix(1,0,0,1,0,0)" fill-rule="nonzero"></path></g><g clip-path="url(#ac99cbb4f-0a71-4fec-b619-fb2643d57e2cd7c35abe-a4d0-4953-a7ca-20c1d52ad1c0)"><path d=" M -8.062096269401193 1.6124090502954294 C -8.122032566117278 1.857838538316278 -8.121079986703482 2.1231648123474836 -8.059657666101874 2.3676451848796765 L -8.147319219647152 2.3676451848796765 C -8.205558193044109 2.122520522271243 -8.206372215452262 1.858448189141108 -8.149487636785468 1.6124090502954294 Z" fill="#fffef2" transform="matrix(1,0,0,1,0,0)" fill-rule="nonzero"></path></g><g clip-path="url(#ac99cbb4f-0a71-4fec-b619-fb2643d57e2cd7c35abe-a4d0-4953-a7ca-20c1d52ad1c0)"><path d=" M -4.635588447696425 2.367641720954536 C -4.575385428744478 2.1221464183560066 -4.5764003588108135 1.8568859589024818 -4.638165608001389 1.6124055863702884 L -4.5504347759532875 1.6124055863702884 C -4.49212652405351 1.857530248978722 -4.491177408564854 2.121567942857446 -4.548058523306508 2.367641720954536 Z" fill="#fffef2" transform="matrix(1,0,0,1,0,0)" fill-rule="nonzero"></path></g><g clip-path="url(#ac99cbb4f-0a71-4fec-b619-fb2643d57e2cd7c35abe-a4d0-4953-a7ca-20c1d52ad1c0)"><path d=" M -4.573553012344847 2.7854153404446143 C -4.492601081797838 2.6494458868818516 -4.492601081797838 2.5028317913605544 -4.573553012344847 2.366896977049204 L -8.31721781996678 2.366896977049204 C -8.398038121358429 2.5028317913605544 -8.398038121358429 2.6494458868818516 -8.31721781996678 2.7854153404446143 L -4.573553012344847 2.7854153404446143" fill="#f89941" transform="matrix(1,0,0,1,0,0)" fill-rule="nonzero"></path></g><g clip-path="url(#ac99cbb4f-0a71-4fec-b619-fb2643d57e2cd7c35abe-a4d0-4953-a7ca-20c1d52ad1c0)"><path d=" M -7.9858275656449225 2.366896977049204 L -7.719583351451331 2.366896977049204 C -7.789076617631652 2.5054782301683396 -7.7865652719043705 2.647041922833944 -7.71158514830058 2.7854153404446143 L -7.977960991649533 2.7854153404446143 C -8.052608578439779 2.647041922833944 -8.055521739483426 2.505408951665518 -7.9858275656449225 2.366896977049204" fill="#fffef2" transform="matrix(1,0,0,1,0,0)" fill-rule="nonzero"></path></g><g clip-path="url(#ac99cbb4f-0a71-4fec-b619-fb2643d57e2cd7c35abe-a4d0-4953-a7ca-20c1d52ad1c0)"><path d=" M -7.4927967085397675 2.366896977049204 C -7.554832143891346 2.5029703483661985 -7.554090863911155 2.6499550838775914 -7.4904273837432696 2.7854153404446143 L -7.580801190674013 2.7854153404446143 C -7.641007673551102 2.6495117014595335 -7.642088418195119 2.5032058952757916 -7.583239793973332 2.366896977049204 Z" fill="#fffef2" transform="matrix(1,0,0,1,0,0)" fill-rule="nonzero"></path></g><g clip-path="url(#SvgjsClipPath22183d7c35abe-a4d0-4953-a7ca-20c1d52ad1c0)"><path d=" M -5.252277968412949 2.4384582065387486 L -4.972271579633852 2.4384582065387486 L -4.972271579633852 2.7217864995281404 L -5.252277968412949 2.7217864995281404 Z" fill="#fffef2" transform="matrix(1,0,0,1,0,0)" fill-rule="nonzero"></path></g><g clip-path="url(#cc99cbb4f-0a71-4fec-b619-fb2643d57e2cd7c35abe-a4d0-4953-a7ca-20c1d52ad1c0)"><path d=" M -5.424282635218352 2.4384582065387486 L -7.304251799185713 2.4384582065387486 L -7.304251799185713 2.7217864995281404 L -5.424282635218352 2.7217864995281404 Z" fill="#f89941" transform="matrix(1,0,0,1,0,0)" fill-rule="nonzero"></path></g><g clip-path="url(#bc99cbb4f-0a71-4fec-b619-fb2643d57e2cd7c35abe-a4d0-4953-a7ca-20c1d52ad1c0)"><path d=" M -8.079388183705458 0.9168009230897103 C -8.139047366410257 1.1429398119998921 -8.139047366410257 1.3869456267877578 -8.079388183705458 1.612984061868848 L -5.3105169418099045 1.612984061868848 C -5.250722666024604 1.3870149052905794 -5.250722666024604 1.1429398119998921 -5.3105169418099045 0.9168009230897103 Z" fill="#869ba7" transform="matrix(1,0,0,1,0,0)" fill-rule="nonzero"></path></g><g clip-path="url(#bc99cbb4f-0a71-4fec-b619-fb2643d57e2cd7c35abe-a4d0-4953-a7ca-20c1d52ad1c0)"><path d=" M -5.538044864701659 0.9168009230897103 C -5.466927017630173 1.1431788228346262 -5.4679419476965085 1.3877250099445007 -5.5413009543342735 1.612984061868848 L -5.436686951148555 1.612984061868848 C -5.367058591887732 1.3870807198682595 -5.366244569479579 1.1436880198303652 -5.433839604682589 0.9168009230897103 Z" fill="#bee7f7" transform="matrix(1,0,0,1,0,0)" fill-rule="nonzero"></path></g><g clip-path="url(#bc99cbb4f-0a71-4fec-b619-fb2643d57e2cd7c35abe-a4d0-4953-a7ca-20c1d52ad1c0)"><path d=" M -5.71777754849681 0.9168009230897103 C -5.646791330580684 1.1431788228346262 -5.647338630752975 1.3877250099445007 -5.721030174204282 1.612984061868848 L -5.616419634943706 1.612984061868848 C -5.546791275682883 1.3870807198682595 -5.545842160194227 1.1436880198303652 -5.613437195397237 0.9168009230897103 Z" fill="#bee7f7" transform="matrix(1,0,0,1,0,0)" fill-rule="nonzero"></path></g><g clip-path="url(#SvgjsClipPath22183d7c35abe-a4d0-4953-a7ca-20c1d52ad1c0)"><path d=" M -7.588733579247084 1.0942300966660434 L -6.060907045121784 1.0942300966660434 L -6.060907045121784 1.437252211611644 L -7.588733579247084 1.437252211611644 Z" fill="#bee7f7" transform="matrix(1,0,0,1,0,0)" fill-rule="nonzero"></path></g><g clip-path="url(#SvgjsClipPath22183d7c35abe-a4d0-4953-a7ca-20c1d52ad1c0)"><path d=" M -7.99779932679062 2.1028231838449924 L -7.867898670075029 1.8719698928178026 L -7.821859641024951 1.8838026610997278 L -7.940135364967084 2.1074509878334737 Z" fill="#ffffff" transform="matrix(1,0,0,1,0,0)" fill-rule="nonzero"></path></g><g clip-path="url(#SvgjsClipPath22183d7c35abe-a4d0-4953-a7ca-20c1d52ad1c0)"><path d=" M -7.973934554869229 1.8518689738198828 L -7.83026825964299 2.0745196901129983 L -7.862441196353329 2.1095676846904325 L -8.00501981908527 1.9006341119559884 Z" fill="#ffffff" transform="matrix(1,0,0,1,0,0)" fill-rule="nonzero"></path></g><g clip-path="url(#SvgjsClipPath22183d7c35abe-a4d0-4953-a7ca-20c1d52ad1c0)"><path d=" M -7.5980293247775785 2.1179224712831735 L -7.467314645653833 1.88741210884495 L -7.421414173609399 1.8994977436621736 L -7.540434641456863 2.1227892861063884 Z" fill="#ffffff" transform="matrix(1,0,0,1,0,0)" fill-rule="nonzero"></path></g><g clip-path="url(#SvgjsClipPath22183d7c35abe-a4d0-4953-a7ca-20c1d52ad1c0)"><path d=" M -7.573315023091514 1.86695527150631 L -7.430497389524838 2.0902641335762304 L -7.462601047732356 2.12523245787542 L -7.604601194965736 1.9159039976748933 Z" fill="#ffffff" transform="matrix(1,0,0,1,0,0)" fill-rule="nonzero"></path></g><g clip-path="url(#SvgjsClipPath22183d7c35abe-a4d0-4953-a7ca-20c1d52ad1c0)"><path d=" M -7.141914975558883 2.120044996719683 L -7.0119450403404695 1.8891605303662231 L -6.965982217643496 1.90096905117216 L -7.084219838409076 2.124672800708164 Z" fill="#ffffff" transform="matrix(1,0,0,1,0,0)" fill-rule="nonzero"></path></g><g clip-path="url(#SvgjsClipPath22183d7c35abe-a4d0-4953-a7ca-20c1d52ad1c0)"><path d=" M -7.117948883573814 1.8690206420351043 L -6.974282588347576 2.0917233172053367 L -7.006455525057914 2.1267436003816416 L -7.149068787041266 1.9178030997969155 Z" fill="#ffffff" transform="matrix(1,0,0,1,0,0)" fill-rule="nonzero"></path></g><g clip-path="url(#SvgjsClipPath22183d7c35abe-a4d0-4953-a7ca-20c1d52ad1c0)"><path d=" M -6.745839258944514 2.12363796205468 L -6.615089940569359 1.8931068160656104 L -6.569224107776336 1.9052270901342447 L -6.68827921487521 2.1285186325784595 Z" fill="#ffffff" transform="matrix(1,0,0,1,0,0)" fill-rule="nonzero"></path></g><g clip-path="url(#SvgjsClipPath22183d7c35abe-a4d0-4953-a7ca-20c1d52ad1c0)"><path d=" M -6.721023637194772 1.872717525384129 L -6.578275282130919 2.095991748202639 L -6.610410115664706 2.130908113624712 L -6.752347912245547 1.9216523958521476 Z" fill="#ffffff" transform="matrix(1,0,0,1,0,0)" fill-rule="nonzero"></path></g><g clip-path="url(#SvgjsClipPath22183d7c35abe-a4d0-4953-a7ca-20c1d52ad1c0)"><path d=" M -6.289589816307583 2.1257578895408384 L -6.159723798843402 1.894904598513649 L -6.113757512221287 1.9066507686670466 L -6.232029772238278 2.13035451820305 Z" fill="#ffffff" transform="matrix(1,0,0,1,0,0)" fill-rule="nonzero"></path></g><g clip-path="url(#SvgjsClipPath22183d7c35abe-a4d0-4953-a7ca-20c1d52ad1c0)"><path d=" M -6.265725044386191 1.8747491225583646 L -6.1220968523365045 2.097448333803455 L -6.154266325121702 2.1324651530546195 L -6.296844947853643 1.92354543602074 Z" fill="#ffffff" transform="matrix(1,0,0,1,0,0)" fill-rule="nonzero"></path></g><g clip-path="url(#SvgjsClipPath22183d7c35abe-a4d0-4953-a7ca-20c1d52ad1c0)"><path d=" M -5.897444798573801 2.1330789136290687 L -5.766730119450054 1.9025997265171155 L -5.720836575255904 1.9147026809600447 L -5.839853579178227 2.138015006955106 Z" fill="#ffffff" transform="matrix(1,0,0,1,0,0)" fill-rule="nonzero"></path></g><g clip-path="url(#SvgjsClipPath22183d7c35abe-a4d0-4953-a7ca-20c1d52ad1c0)"><path d=" M -5.872668146079318 1.8821714667102711 L -5.729850512512645 2.1054699370047683 L -5.761985346046432 2.140417477753112 L -5.903988957204952 1.9311236568039953 Z" fill="#ffffff" transform="matrix(1,0,0,1,0,0)" fill-rule="nonzero"></path></g><g clip-path="url(#SvgjsClipPath22183d7c35abe-a4d0-4953-a7ca-20c1d52ad1c0)"><path d=" M -5.4412992739508965 2.1352663878243447 L -5.311332802657623 1.9043784575457445 L -5.265397691361779 1.9161419473248473 L -5.38360413680109 2.1398560886362743 Z" fill="#ffffff" transform="matrix(1,0,0,1,0,0)" fill-rule="nonzero"></path></g><g clip-path="url(#SvgjsClipPath22183d7c35abe-a4d0-4953-a7ca-20c1d52ad1c0)"><path d=" M -5.417369553270738 1.8842264454376634 L -5.273668618793089 2.1069083370570487 L -5.305872730829696 2.1419424759339183 L -5.448454817486779 1.93305739815145 Z" fill="#ffffff" transform="matrix(1,0,0,1,0,0)" fill-rule="nonzero"></path></g><g clip-path="url(#SvgjsClipPath22183d7c35abe-a4d0-4953-a7ca-20c1d52ad1c0)"><path d=" M -5.045254732740737 2.1388255798047835 L -4.91447423903931 1.9083498566179713 L -4.868539127743466 1.9204147078843483 L -4.987628874093751 2.1437408895799743 Z" fill="#ffffff" transform="matrix(1,0,0,1,0,0)" fill-rule="nonzero"></path></g><g clip-path="url(#SvgjsClipPath22183d7c35abe-a4d0-4953-a7ca-20c1d52ad1c0)"><path d=" M -5.020444306891696 1.8879207308363373 L -4.877695951827843 2.111181097954283 L -4.909830785361629 2.146145958328331 L -5.051765118017331 1.9368382816786511 Z" fill="#ffffff" transform="matrix(1,0,0,1,0,0)" fill-rule="nonzero"></path></g><g clip-path="url(#dc99cbb4f-0a71-4fec-b619-fb2643d57e2cd7c35abe-a4d0-4953-a7ca-20c1d52ad1c0)"><path d=" M -7.658981981108159 2.0078611361763965 C -7.659286806520575 2.0337435848305363 -7.678033569384093 2.0520469652759967 -7.703964512990208 2.051742139863582 C -7.714848165783477 2.051589727157374 -7.730951953764352 2.043875565868192 -7.738918981588832 2.037453448656632 C -7.749560159622226 2.0287243573011136 -7.756474154203819 2.0154367404599363 -7.756339061123318 2.000604213005837 C -7.756203968042815 1.9857924691025841 -7.7558991426304 1.9768590061637423 -7.745119407591363 1.9683689256429584 L -7.733120370902666 1.9610288682690127 L -7.7249143322434515 1.9571284885601579 C -7.719898568639169 1.9553999899147596 -7.714373608039149 1.9517905799177557 -7.7088140081877174 1.9518598584205777 C -7.6937978927011414 1.9520295907524903 -7.681355473594387 1.9533181709049716 -7.6728792487741675 1.964350772479307 L -7.661119222920205 1.9813343974460158 C -7.6575236686237655 1.9880786596956963 -7.6588815272790685 1.9995892829395008 -7.658981981108159 2.0078611361763965" fill="#869ba7" transform="matrix(1,0,0,1,0,0)" fill-rule="nonzero"></path></g><g clip-path="url(#dc99cbb4f-0a71-4fec-b619-fb2643d57e2cd7c35abe-a4d0-4953-a7ca-20c1d52ad1c0)"><path d=" M -7.241378093949994 2.0178580241335498 C -7.241682919362408 2.0438617101676275 -7.267818234551847 2.0643508273771083 -7.293683363580282 2.0640460019646936 C -7.310940638633136 2.063910908884191 -7.332295737127886 2.0548423528648474 -7.340297404203778 2.0408931263217234 C -7.344294773816583 2.0338578943601924 -7.346158365542483 2.025315854962292 -7.346092550964803 2.016687217435865 C -7.34592281863289 1.9996897367685922 -7.336293106740691 1.9792976094630619 -7.322669489160829 1.9713652208899914 C -7.315551122995911 1.967111520816747 -7.300396450503692 1.9693665360835892 -7.291480307190556 1.9694323506612694 C -7.2805308398196065 1.9695674437417716 -7.266869119063192 1.9691621645002655 -7.258971369741532 1.975688199466058 C -7.248160459376226 1.984129785034867 -7.241208361618081 2.002859228272679 -7.241378093949994 2.0178580241335498" fill="#869ba7" transform="matrix(1,0,0,1,0,0)" fill-rule="nonzero"></path></g><g clip-path="url(#dc99cbb4f-0a71-4fec-b619-fb2643d57e2cd7c35abe-a4d0-4953-a7ca-20c1d52ad1c0)"><path d=" M -6.803032223047048 2.0250110295498773 C -6.803302409208053 2.0509281174554284 -6.822153089825803 2.069165683323207 -6.847983579602827 2.068909352862768 C -6.858898407722366 2.0688088990336766 -6.875002195703241 2.0610947377444937 -6.88293112035117 2.054603342030113 C -6.893610401561116 2.045943529177416 -6.900559035394119 2.0325900977585576 -6.900423942313617 2.0178060652564334 C -6.900188395404024 2.0029596821017703 -6.8999840238207 1.9940262191629283 -6.889173113455393 1.9855188190164392 L -6.8771359735901445 1.9782307205196095 L -6.86893339885607 1.9742818458587796 C -6.863948810578059 1.9725533472133814 -6.858458489229449 1.969061710671174 -6.852864250126606 1.969110205623149 C -6.837879309966301 1.969262618329357 -6.825371076281865 1.9704853839041576 -6.816964129964466 1.9815699443556094 L -6.805235279436774 1.9985016104452018 C -6.801573910562654 2.0052805119462933 -6.802931769217957 2.0167564959386866 -6.803032223047048 2.0250110295498773" fill="#869ba7" transform="matrix(1,0,0,1,0,0)" fill-rule="nonzero"></path></g><g clip-path="url(#dc99cbb4f-0a71-4fec-b619-fb2643d57e2cd7c35abe-a4d0-4953-a7ca-20c1d52ad1c0)"><path d=" M -6.389124344014414 2.023570036691189 C -6.389429169426828 2.0495875784258306 -6.415633763119089 2.070097479186158 -6.441533531398934 2.069823829100013 C -6.458648785521005 2.069619457516689 -6.480142441021398 2.060620180000167 -6.488109468845879 2.0465704996279515 C -6.492144941635235 2.039587226543537 -6.493939254858314 2.0310798263970478 -6.493838801029224 2.0223992299935043 C -6.49366906869731 2.0054329246525002 -6.484077459981663 1.98497498276929 -6.470481553802929 1.9771118726990415 C -6.463397826889423 1.9728408530000914 -6.448177339819523 1.9750439093898173 -6.439261196506386 1.9751651467697549 C -6.428346368386848 1.975300239850257 -6.414719286881844 1.974822218180788 -6.4067868983087735 1.9814348512751077 C -6.395937884766916 1.9899110760953274 -6.389023890185323 2.008602416156588 -6.389124344014414 2.023570036691189" fill="#869ba7" transform="matrix(1,0,0,1,0,0)" fill-rule="nonzero"></path></g><g clip-path="url(#dc99cbb4f-0a71-4fec-b619-fb2643d57e2cd7c35abe-a4d0-4953-a7ca-20c1d52ad1c0)"><path d=" M -5.950844287689149 2.0307230421075158 C -5.9510832985238835 2.056657449638772 -5.9699651544679035 2.0749296547579625 -5.9957921803197864 2.0746767882226633 C -6.006641193861645 2.0745070558907504 -6.02277962109393 2.066758255350158 -6.03067737041559 2.060336138138598 C -6.041422466203215 2.051724820237876 -6.048371100036221 2.0383713888190176 -6.0481355531266265 2.023504222113508 C -6.048000460046124 2.00870633391082 -6.047660995382299 1.9997624791965547 -6.036947074920942 1.9911996562478078 L -6.024982677483656 1.9839600527029535 L -6.016676184995349 1.9800111780421237 C -6.011695060642479 1.9782653597710202 -6.006235914620138 1.9747598675282487 -6.000607036265885 1.9748256821059293 C -5.985660199282131 1.975012734063547 -5.973186604849106 1.9762493553389124 -5.964679204702618 1.9872681012126836 L -5.952984993426336 2.004265581879957 C -5.949420614456166 2.0110133080547783 -5.950674555357236 2.0225377869991465 -5.950844287689149 2.0307230421075158" fill="#869ba7" transform="matrix(1,0,0,1,0,0)" fill-rule="nonzero"></path></g><g clip-path="url(#dc99cbb4f-0a71-4fec-b619-fb2643d57e2cd7c35abe-a4d0-4953-a7ca-20c1d52ad1c0)"><path d=" M -5.540802149113958 2.03304733587718 C -5.541041159948692 2.059116836488938 -5.567211114389542 2.079557458746444 -5.593110882669388 2.0792872725854394 C -5.610295415294279 2.0791002206278213 -5.631723256216992 2.070097479186158 -5.639717995442601 2.0560651184396477 C -5.643722292905688 2.0490957010557977 -5.645551245380178 2.0405536616578974 -5.645416152299676 2.0318765291794953 C -5.645242956042622 2.0149102238384913 -5.635685986578386 1.9944869212066918 -5.6220589050733825 1.986571852259327 C -5.614971714234734 1.9823354718117876 -5.599820505667656 1.9845558478272192 -5.590835083851698 1.9846736212820162 C -5.579923719657301 1.9847740751111071 -5.566293174227155 1.9843514762438954 -5.558398888830638 1.9909121504610987 C -5.547581050615049 1.999384911356177 -5.540601241455775 2.018117818519131 -5.540802149113958 2.03304733587718" fill="#869ba7" transform="matrix(1,0,0,1,0,0)" fill-rule="nonzero"></path></g><g clip-path="url(#dc99cbb4f-0a71-4fec-b619-fb2643d57e2cd7c35abe-a4d0-4953-a7ca-20c1d52ad1c0)"><path d=" M -5.1024562782110126 2.0401968773683663 C -5.102691825120606 2.0661624602258923 -5.121577144989767 2.084417345719377 -5.147442274018202 2.0841471595583734 C -5.158253184383509 2.084029386103576 -5.1743916116157935 2.0762805855629836 -5.182358639440275 2.069823829100013 C -5.193034456725079 2.0611813358730213 -5.199986554483224 2.0478417601547276 -5.199851461402722 2.033012696625769 C -5.199608986642846 2.0181801691716705 -5.199408078984664 2.0092467062328287 -5.1885590654428055 2.0007046668349284 L -5.176560028754109 1.9934685272152148 L -5.168353990094893 1.989467693677269 C -5.163338226490612 1.987753050732435 -5.157813265890591 1.9842821977410743 -5.1522190267877495 1.9842960534416385 C -5.137241014477724 1.9844831053992567 -5.12479859537097 1.985723190599763 -5.11632237055075 1.9967557921740988 L -5.104555416846506 2.0137394171408074 C -5.101001429651759 2.0205183186418987 -5.102355824381921 2.031994302634293 -5.1024562782110126 2.0401968773683663" fill="#869ba7" transform="matrix(1,0,0,1,0,0)" fill-rule="nonzero"></path></g><g clip-path="url(#dc99cbb4f-0a71-4fec-b619-fb2643d57e2cd7c35abe-a4d0-4953-a7ca-20c1d52ad1c0)"><path d=" M -4.688548399178377 2.038811307311935 C -4.688853224590792 2.064776890169461 -4.714988539780231 2.0852486877532357 -4.740922947311487 2.0849300066402563 C -4.758145583112931 2.084742954682638 -4.779535320859091 2.0758614506209128 -4.7875335240098424 2.061794450622992 C -4.791534357547788 2.0547765382871663 -4.7933633100222774 2.046265674215536 -4.793262856193187 2.03764050061425 C -4.7930238453584515 2.0205875971447202 -4.783498051220485 2.000216253390036 -4.769839794389212 1.9923011844426715 C -4.762717964299155 1.9880959793214015 -4.747597931058346 1.9902817160854223 -4.738685251670351 1.9903856338396546 C -4.727735784299401 1.9905380465458624 -4.714143342045808 1.9900773445020985 -4.706176314221327 1.9965860598421854 C -4.695361939930879 2.005148882790932 -4.688378666846464 2.0237917279002176 -4.688548399178377 2.038811307311935" fill="#869ba7" transform="matrix(1,0,0,1,0,0)" fill-rule="nonzero"></path></g><g clip-path="url(#dc99cbb4f-0a71-4fec-b619-fb2643d57e2cd7c35abe-a4d0-4953-a7ca-20c1d52ad1c0)"><path d=" M -5.010596447394747 2.5865929651969797 C -5.041175978540189 2.5494423680589104 -5.0823204813659215 2.521138635731157 -5.124840162472664 2.499374794069759 C -5.149600299381094 2.486703755903693 -5.183363177731188 2.49745231561646 -5.195046997232046 2.523182351564393 C -5.204475801466062 2.543931263159454 -5.208757212940435 2.5650161754932004 -5.210662371768029 2.5865929651969797 C -5.208757212940435 2.608128187799066 -5.204475801466062 2.629220027983094 -5.195046997232046 2.64998279527872 C -5.183363177731188 2.675716295151794 -5.149600299381094 2.6864406073885725 -5.124840162472664 2.67374878567166 C -5.0823204813659215 2.652012655411392 -5.041175978540189 2.623639644580816 -5.010596447394747 2.5865929651969797" fill="#f89941" transform="matrix(1,0,0,1,0,0)" fill-rule="nonzero"></path></g><g clip-path="url(#dc99cbb4f-0a71-4fec-b619-fb2643d57e2cd7c35abe-a4d0-4953-a7ca-20c1d52ad1c0)"><path d=" M -2.5019040867707565 2.7952667435458425 L -3.1903903838864176 2.7952667435458425 L -3.1903903838864176 -1.0370121970351656 C -2.9726064824165173 -1.1192527077346561 -2.719687988240656 -1.1192527077346561 -2.5019040867707565 -1.0370121970351656 L -2.5019040867707565 2.7952667435458425" fill="#f89941" transform="matrix(1,0,0,1,0,0)" fill-rule="nonzero"></path></g><g clip-path="url(#ec99cbb4f-0a71-4fec-b619-fb2643d57e2cd7c35abe-a4d0-4953-a7ca-20c1d52ad1c0)"><path d=" M -2.8507248124025217 -0.26388142517210555 C -2.731468797645465 -0.26388142517210555 -2.612195463262702 -0.24794736952314356 -2.501907550695898 -0.21611389747663023 L -2.501907550695898 -0.1215383493497586 C -2.611873318224581 -0.15520077387076137 -2.7312817456878467 -0.17204584183182714 -2.8506901731511114 -0.17204584183182714 C -2.966845974906904 -0.17204584183182714 -3.0830017766626954 -0.1560979304823007 -3.1903903838864176 -0.12417786030726052 L -3.1903903838864176 -0.21859060395250152 C -3.082731590501691 -0.24879603118270788 -2.9667455210778115 -0.26388142517210555 -2.8507248124025217 -0.26388142517210555" fill="#f89941" transform="matrix(1,0,0,1,0,0)" fill-rule="nonzero"></path></g><g clip-path="url(#fc99cbb4f-0a71-4fec-b619-fb2643d57e2cd7c35abe-a4d0-4953-a7ca-20c1d52ad1c0)"><path d=" M -2.843318940450896 -0.6239529796620957 C -2.726723220202187 -0.6239529796620957 -2.61023141770771 -0.6086978533407852 -2.5022781906859928 -0.5782222399495748 C -2.5021604172311953 -0.5498665487447046 -2.5020080045249884 -0.4473378284939161 -2.501907550695898 -0.4042708472148846 L -2.501907550695898 -0.3923722643552794 C -2.60968411753542 -0.4246283352690041 -2.726553487870274 -0.4407632985761487 -2.843540631659925 -0.4407632985761487 C -2.9621350367150363 -0.4407632985761487 -3.0809026380272018 -0.4241710971503818 -3.1903903838864176 -0.39096591074800136 L -3.1903903838864176 -0.576646154010384 C -3.0804419359834387 -0.6081886563450467 -2.9618128916769164 -0.6239529796620957 -2.843318940450896 -0.6239529796620957" fill="#f89941" transform="matrix(1,0,0,1,0,0)" fill-rule="nonzero"></path></g><g clip-path="url(#dc99cbb4f-0a71-4fec-b619-fb2643d57e2cd7c35abe-a4d0-4953-a7ca-20c1d52ad1c0)"><path d=" M -0.8351429791619314 2.7556048006804916 C -1.0507723191940812 2.7689616960244905 -1.2665575358575776 2.782114219785167 -1.4822526904674076 2.7952667435458434 C -1.5356144572657247 1.9243355092495664 -1.5889692962137598 1.053265717947647 -1.642275640209819 0.18226520514854938 C -1.4355589795656662 0.11270612439054761 -1.2089974917882724 0.09894048587990145 -0.99534605301168 0.14260326228319786 C -0.9419565748122345 1.0135379605046155 -0.8884978181099665 1.8846042878813936 -0.8351429791619314 2.7556048006804916" fill="#869ba7" transform="matrix(1,0,0,1,0,0)" fill-rule="nonzero"></path></g><g clip-path="url(#dc99cbb4f-0a71-4fec-b619-fb2643d57e2cd7c35abe-a4d0-4953-a7ca-20c1d52ad1c0)"><path d=" M -1.6289533841172306 0.40003178699274344 C -1.625108427210633 0.4638303602411309 -1.6211734082503675 0.5274903764838752 -1.617224533589538 0.5912231351545825 C -1.4060671209145221 0.5280342127310245 -1.187063917794962 0.5165755483643364 -0.9698723475241859 0.5574602568044882 C -0.9737865829336059 0.4936616835561005 -0.977603828439074 0.42999820338821526 -0.9815319195490577 0.3660645370593256 C -1.1987581290712441 0.32531838562481696 -1.4178652499450353 0.3367770499915055 -1.6289533841172306 0.40003178699274344" fill="#bee7f7" transform="matrix(1,0,0,1,0,0)" fill-rule="nonzero"></path></g><g clip-path="url(#dc99cbb4f-0a71-4fec-b619-fb2643d57e2cd7c35abe-a4d0-4953-a7ca-20c1d52ad1c0)"><path d=" M -1.6425319706702606 2.7952667435458425 L -2.502735428804616 2.7952667435458425 L -2.502735428804616 -0.7432782729219751 C -2.223238237021258 -0.8197894514381214 -1.9219598839507963 -0.8197894514381214 -1.6425319706702606 -0.7432782729219751 Z" fill="#bee7f7" transform="matrix(1,0,0,1,0,0)" fill-rule="nonzero"></path></g><g clip-path="url(#dc99cbb4f-0a71-4fec-b619-fb2643d57e2cd7c35abe-a4d0-4953-a7ca-20c1d52ad1c0)"><path d=" M -2.502700789553204 2.6486872872759566 C -2.223051185063639 2.5884842683240086 -1.9208410361302262 2.5893641053098433 -1.6425007953439899 2.6511293545004166 L -1.6425007953439899 2.563194150868993 C -1.9216550585383816 2.504615712808211 -2.2223895753616922 2.503735875822377 -2.502700789553204 2.5608906406501752 Z" fill="#fffef2" transform="matrix(1,0,0,1,0,0)" fill-rule="nonzero"></path></g><g clip-path="url(#dc99cbb4f-0a71-4fec-b619-fb2643d57e2cd7c35abe-a4d0-4953-a7ca-20c1d52ad1c0)"><path d=" M -2.502700789553204 2.503735875822377 C -2.223051185063639 2.443532856870429 -1.9208410361302262 2.4444161577814043 -1.6425007953439899 2.5062437576245182 L -1.6425007953439899 2.418173460912592 C -1.9216550585383816 2.359733579857453 -2.2223895753616922 2.3588502789464787 -2.502700789553204 2.4159357652714553 Z" fill="#fffef2" transform="matrix(1,0,0,1,0,0)" fill-rule="nonzero"></path></g><g clip-path="url(#dc99cbb4f-0a71-4fec-b619-fb2643d57e2cd7c35abe-a4d0-4953-a7ca-20c1d52ad1c0)"><path d=" M -2.502700789553204 -0.5304962793557919 C -2.223051185063639 -0.5907651128854203 -1.9208410361302262 -0.5898194613219059 -1.6425007953439899 -0.527988397553651 L -1.6425007953439899 -0.616024055014166 C -1.9216550585383816 -0.6745020392458567 -2.2223895753616922 -0.6754476908093712 -2.502700789553204 -0.6183622044843943 Z" fill="#fffef2" transform="matrix(1,0,0,1,0,0)" fill-rule="nonzero"></path></g><g clip-path="url(#dc99cbb4f-0a71-4fec-b619-fb2643d57e2cd7c35abe-a4d0-4953-a7ca-20c1d52ad1c0)"><path d=" M -2.2071656243666515 1.807383004711326 C -2.168975849686259 1.7610391502488338 -2.1175919841434974 1.7257105777349724 -2.06448654780562 1.6985637964043387 C -2.0335675519963505 1.6826574521565052 -1.9913977273288594 1.6960801620781856 -1.976814602484918 1.728194212061126 C -1.9650372570052506 1.7541528670683697 -1.9596924205125665 1.7804856259908497 -1.9573127039406453 1.807383004711326 C -1.9596924205125665 1.8343254144586363 -1.9650372570052506 1.8606651012313986 -1.976814602484918 1.8866237562386423 C -1.9913977273288594 1.9187100948204543 -2.0335675519963505 1.9321050933410058 -2.06448654780562 1.9162541718954296 C -2.1175919841434974 1.889079679163667 -2.168975849686259 1.8536749002967021 -2.2071656243666515 1.807383004711326" fill="#fffef2" transform="matrix(1,0,0,1,0,0)" fill-rule="nonzero"></path></g><g clip-path="url(#dc99cbb4f-0a71-4fec-b619-fb2643d57e2cd7c35abe-a4d0-4953-a7ca-20c1d52ad1c0)"><path d=" M -2.220131096169709 1.2217510368097144 C -2.181941321489317 1.1754071823472227 -2.1305574559465548 1.1400820737585022 -2.0774520196086774 1.1129318285027272 C -2.046533023799409 1.097028948180035 -2.004363199131917 1.110451658101715 -1.9897800742879763 1.1425622441595145 C -1.9780027288083089 1.1685208991667586 -1.9726578923156248 1.1948571220143795 -1.9702781757437036 1.2217510368097144 C -1.9726578923156248 1.2486969104821661 -1.9780027288083089 1.2750365972549285 -1.9897800742879763 1.3009917883370308 C -2.004363199131917 1.3330815908439837 -2.046533023799409 1.3464765893645356 -2.0774520196086774 1.330622203993818 C -2.1305574559465548 1.3034477112620555 -2.181941321489317 1.2680429323950906 -2.220131096169709 1.2217510368097144" fill="#fffef2" transform="matrix(1,0,0,1,0,0)" fill-rule="nonzero"></path></g><g clip-path="url(#dc99cbb4f-0a71-4fec-b619-fb2643d57e2cd7c35abe-a4d0-4953-a7ca-20c1d52ad1c0)"><path d=" M -2.226615564033809 0.5950438445851918 C -2.188425789353416 0.5486999901227001 -2.1370419238106537 0.5133714176088384 -2.0839364874727764 0.48622463627820456 C -2.0530174916635078 0.47031829203037123 -2.010851130921157 0.48374100195205094 -1.9962645421520753 0.5158550519349916 C -1.9844871966724078 0.5418102430170944 -1.9791423601797238 0.568146465864716 -1.9767626436078025 0.5950438445851918 C -1.9791423601797238 0.6219862543325019 -1.9844871966724078 0.6483259411052644 -1.9962645421520753 0.6742845961125081 C -2.010851130921157 0.7063709346943201 -2.0530174916635078 0.7197659332148714 -2.0839364874727764 0.7039150117692954 C -2.1370419238106537 0.6767405190375329 -2.188425789353416 0.6413357401705675 -2.226615564033809 0.5950438445851918" fill="#fffef2" transform="matrix(1,0,0,1,0,0)" fill-rule="nonzero"></path></g><g clip-path="url(#dc99cbb4f-0a71-4fec-b619-fb2643d57e2cd7c35abe-a4d0-4953-a7ca-20c1d52ad1c0)"><path d=" M -2.1268614478210246 2.0129946732354753 C -2.1268614478210246 2.0328741396201266 -2.139826919624082 2.050425848309972 -2.1606693571979534 2.051846057617814 C -2.179409192211188 2.0531623491714246 -2.1994930301791626 2.037938398176383 -2.1994930301791626 2.018086643192861 C -2.1994930301791626 1.9982556717601858 -2.186551805852093 1.9807074269954807 -2.1657336157542106 1.979238722735664 C -2.1469937807409734 1.9779466786580413 -2.1268614478210246 1.9931637018027997 -2.1268614478210246 2.0129946732354753" fill="#fffef2" transform="matrix(1,0,0,1,0,0)" fill-rule="nonzero"></path></g><g clip-path="url(#dc99cbb4f-0a71-4fec-b619-fb2643d57e2cd7c35abe-a4d0-4953-a7ca-20c1d52ad1c0)"><path d=" M -2.1268614478210246 2.1514200497232627 C -2.1268614478210246 2.171226773679951 -2.139826919624082 2.1887750184446553 -2.1606693571979534 2.190243722704473 C -2.179409192211188 2.1915600142580827 -2.1994930301791626 2.1763395271881825 -2.1994930301791626 2.156460060803532 C -2.1994930301791626 2.136656800771985 -2.186551805852093 2.1191050920821395 -2.1657336157542106 2.1176640992234503 C -2.1469937807409734 2.116320096268712 -2.1268614478210246 2.1315405833386114 -2.1268614478210246 2.1514200497232627" fill="#fffef2" transform="matrix(1,0,0,1,0,0)" fill-rule="nonzero"></path></g><g clip-path="url(#dc99cbb4f-0a71-4fec-b619-fb2643d57e2cd7c35abe-a4d0-4953-a7ca-20c1d52ad1c0)"><path d=" M -1.9985922998468792 2.0920068057034813 C -1.9985922998468792 2.1166976641090898 -2.018596467536609 2.136729543199948 -2.043290789867359 2.136729543199948 C -2.0679816482729665 2.136729543199948 -2.0879892798878377 2.1166976641090898 -2.0879892798878377 2.0920068057034813 C -2.0879892798878377 2.0673679061749883 -2.0679816482729665 2.0473083156830008 -2.043290789867359 2.0473083156830008 C -2.018596467536609 2.0473083156830008 -1.9985922998468792 2.0673679061749883 -1.9985922998468792 2.0920068057034813" fill="#fffef2" transform="matrix(1,0,0,1,0,0)" fill-rule="nonzero"></path></g><g clip-path="url(#dc99cbb4f-0a71-4fec-b619-fb2643d57e2cd7c35abe-a4d0-4953-a7ca-20c1d52ad1c0)"><path d=" M -2.139826919624081 1.427362705333864 C -2.139826919624081 1.4472387077933735 -2.1527923914271385 1.4647938804083604 -2.173634829001009 1.4662106257910617 C -2.1923746640142445 1.4675269173446719 -2.212458501982219 1.4523064302747717 -2.212458501982219 1.4324512113661088 C -2.212458501982219 1.4126237038585743 -2.199517277655149 1.3950719951687283 -2.1786990875572663 1.393603290908911 C -2.15995925254403 1.3923112468312888 -2.139826919624081 1.4075317339011886 -2.139826919624081 1.427362705333864" fill="#fffef2" transform="matrix(1,0,0,1,0,0)" fill-rule="nonzero"></path></g><g clip-path="url(#dc99cbb4f-0a71-4fec-b619-fb2643d57e2cd7c35abe-a4d0-4953-a7ca-20c1d52ad1c0)"><path d=" M -2.139826919624081 1.565788081821651 C -2.139826919624081 1.5855948057783393 -2.1527923914271385 1.6031430505430435 -2.173634829001009 1.6046117548028611 C -2.1923746640142445 1.6059280463564714 -2.212458501982219 1.5907075592865711 -2.212458501982219 1.5708280929019207 C -2.212458501982219 1.5510248328703737 -2.199517277655149 1.5334765881056691 -2.1786990875572663 1.5320321313218395 C -2.15995925254403 1.5306881283671008 -2.139826919624081 1.5459120793621415 -2.139826919624081 1.565788081821651" fill="#fffef2" transform="matrix(1,0,0,1,0,0)" fill-rule="nonzero"></path></g><g clip-path="url(#dc99cbb4f-0a71-4fec-b619-fb2643d57e2cd7c35abe-a4d0-4953-a7ca-20c1d52ad1c0)"><path d=" M -2.011561235575079 1.506374837801869 C -2.011561235575079 1.531069160132619 -2.0315654032648087 1.5510975752983363 -2.0562597255955586 1.5510975752983363 C -2.080950584001167 1.5510975752983363 -2.1009582156160374 1.531069160132619 -2.1009582156160374 1.506374837801869 C -2.1009582156160374 1.4817359382733761 -2.080950584001167 1.4616798117065308 -2.0562597255955586 1.4616798117065308 C -2.0315654032648087 1.4616798117065308 -2.011561235575079 1.4817359382733761 -2.011561235575079 1.506374837801869" fill="#fffef2" transform="matrix(1,0,0,1,0,0)" fill-rule="nonzero"></path></g><g clip-path="url(#dc99cbb4f-0a71-4fec-b619-fb2643d57e2cd7c35abe-a4d0-4953-a7ca-20c1d52ad1c0)"><path d=" M -2.112704385769436 0.9973510383203548 C -2.112704385769436 1.0172305047050056 -2.1328367186893855 1.0324267442989175 -2.151576553702622 1.0311104527453077 C -2.1723947438005045 1.0296382845603496 -2.185335968127575 1.012117751196773 -2.185335968127575 0.992286779764098 C -2.185335968127575 0.9724073133794471 -2.1652521301596 0.9572110737855344 -2.1464880476703776 0.9585031178631571 C -2.125669857572494 0.9599475746469868 -2.112704385769436 0.9775200668876789 -2.112704385769436 0.9973510383203548" fill="#fffef2" transform="matrix(1,0,0,1,0,0)" fill-rule="nonzero"></path></g><g clip-path="url(#dc99cbb4f-0a71-4fec-b619-fb2643d57e2cd7c35abe-a4d0-4953-a7ca-20c1d52ad1c0)"><path d=" M -2.112704385769436 0.8589741567845421 C -2.112704385769436 0.8788051282172178 -2.1328367186893855 0.8940221513619764 -2.151576553702622 0.8927058598083664 C -2.1723947438005045 0.8912371555485492 -2.185335968127575 0.8737131582598319 -2.185335968127575 0.8538821868271562 C -2.185335968127575 0.8340061843676467 -2.1652521301596 0.8188099447737345 -2.1464880476703776 0.8201262363273445 C -2.125669857572494 0.8215706931111744 -2.112704385769436 0.8390946903998913 -2.112704385769436 0.8589741567845421" fill="#fffef2" transform="matrix(1,0,0,1,0,0)" fill-rule="nonzero"></path></g><g clip-path="url(#dc99cbb4f-0a71-4fec-b619-fb2643d57e2cd7c35abe-a4d0-4953-a7ca-20c1d52ad1c0)"><path d=" M -1.9844144542444448 0.9183354419272078 C -1.9844144542444448 0.9430020528568293 -2.0044428694101626 0.9630339319476875 -2.0291371917409124 0.9630339319476875 C -2.053828050146521 0.9630339319476875 -2.0738322178362507 0.9430020528568293 -2.0738322178362507 0.9183354419272078 C -2.0738322178362507 0.8936445835215989 -2.053828050146521 0.8736127044307407 -2.0291371917409124 0.8736127044307407 C -2.0044428694101626 0.8736127044307407 -1.9844144542444448 0.8936445835215989 -1.9844144542444448 0.9183354419272078" fill="#fffef2" transform="matrix(1,0,0,1,0,0)" fill-rule="nonzero"></path></g><g clip-path="url(#dc99cbb4f-0a71-4fec-b619-fb2643d57e2cd7c35abe-a4d0-4953-a7ca-20c1d52ad1c0)"><path d=" M -2.1592803232163797 0.21502008128258887 C -2.1592803232163797 0.23489954766723953 -2.1722492589445785 0.2524512563570853 -2.1930882325933077 0.2538714656649277 C -2.211828067606543 0.2551877572185377 -2.231911905574518 0.23996380622349656 -2.231911905574518 0.22011205123997457 C -2.231911905574518 0.20028107980729914 -2.2189706812474483 0.1827328350425943 -2.198152491149566 0.18126413078277692 C -2.1794126561363285 0.17997208670515463 -2.1592803232163797 0.19518910984991344 -2.1592803232163797 0.21502008128258887" fill="#fffef2" transform="matrix(1,0,0,1,0,0)" fill-rule="nonzero"></path></g><g clip-path="url(#dc99cbb4f-0a71-4fec-b619-fb2643d57e2cd7c35abe-a4d0-4953-a7ca-20c1d52ad1c0)"><path d=" M -2.1592803232163797 0.3534489216955168 C -2.1592803232163797 0.3732556456522049 -2.1722492589445785 0.39080389041690955 -2.1930882325933077 0.3922725946767269 C -2.211828067606543 0.3935888862303367 -2.231911905574518 0.37836839916043696 -2.231911905574518 0.3584889327757863 C -2.231911905574518 0.33868567274423933 -2.2189706812474483 0.32113396405439376 -2.198152491149566 0.31969297119570483 C -2.1794126561363285 0.31834896824096637 -2.1592803232163797 0.33356945531086635 -2.1592803232163797 0.3534489216955168" fill="#fffef2" transform="matrix(1,0,0,1,0,0)" fill-rule="nonzero"></path></g><g clip-path="url(#dc99cbb4f-0a71-4fec-b619-fb2643d57e2cd7c35abe-a4d0-4953-a7ca-20c1d52ad1c0)"><path d=" M -2.0310111752422353 0.2940356776757349 C -2.0310111752422353 0.3187265360813438 -2.051015342931966 0.33875841517220184 -2.075709665262716 0.33875841517220184 C -2.1004005236683234 0.33875841517220184 -2.1204081552831946 0.3187265360813438 -2.1204081552831946 0.2940356776757349 C -2.1204081552831946 0.26939677814724217 -2.1004005236683234 0.24933718765525525 -2.075709665262716 0.24933718765525525 C -2.051015342931966 0.24933718765525525 -2.0310111752422353 0.26939677814724217 -2.0310111752422353 0.2940356776757349" fill="#fffef2" transform="matrix(1,0,0,1,0,0)" fill-rule="nonzero"></path></g><g clip-path="url(#dc99cbb4f-0a71-4fec-b619-fb2643d57e2cd7c35abe-a4d0-4953-a7ca-20c1d52ad1c0)"><path d=" M -2.132154325436593 -0.21498812180577953 C -2.132154325436593 -0.19510865542112898 -2.152286658356542 -0.1799158797523578 -2.1710264933697783 -0.18123217130596758 C -2.191844683467661 -0.18270087556578507 -2.204785907794731 -0.2002248728545022 -2.204785907794731 -0.22005584428717773 C -2.204785907794731 -0.23993184674668722 -2.1847020698267565 -0.2551280863405996 -2.165937987337533 -0.2538360422629772 C -2.145123261164791 -0.2523950494042885 -2.132154325436593 -0.23481909323845507 -2.132154325436593 -0.21498812180577953" fill="#fffef2" transform="matrix(1,0,0,1,0,0)" fill-rule="nonzero"></path></g><g clip-path="url(#dc99cbb4f-0a71-4fec-b619-fb2643d57e2cd7c35abe-a4d0-4953-a7ca-20c1d52ad1c0)"><path d=" M -2.132154325436593 -0.3533650033415914 C -2.132154325436593 -0.33353403190891584 -2.152286658356542 -0.31831700876415714 -2.1710264933697783 -0.31963330031776693 C -2.191844683467661 -0.3211020045775843 -2.204785907794731 -0.33862600186630143 -2.204785907794731 -0.3584569732989771 C -2.204785907794731 -0.37833643968362773 -2.1847020698267565 -0.3935326792775399 -2.165937987337533 -0.392212923798789 C -2.145123261164791 -0.3907719309401002 -2.132154325436593 -0.37324446972624203 -2.132154325436593 -0.3533650033415914" fill="#fffef2" transform="matrix(1,0,0,1,0,0)" fill-rule="nonzero"></path></g><g clip-path="url(#dc99cbb4f-0a71-4fec-b619-fb2643d57e2cd7c35abe-a4d0-4953-a7ca-20c1d52ad1c0)"><path d=" M -2.0038609299864616 -0.2940037181989259 C -2.0038609299864616 -0.2693371072693045 -2.02389280907732 -0.24930522817844636 -2.048583667482929 -0.24930522817844636 C -2.073274525888537 -0.24930522817844636 -2.0932786935782666 -0.2693371072693045 -2.0932786935782666 -0.2940037181989259 C -2.0932786935782666 -0.3186945766045348 -2.073274525888537 -0.33872645569539295 -2.048583667482929 -0.33872645569539295 C -2.02389280907732 -0.33872645569539295 -2.0038609299864616 -0.3186945766045348 -2.0038609299864616 -0.2940037181989259" fill="#fffef2" transform="matrix(1,0,0,1,0,0)" fill-rule="nonzero"></path></g><g clip-path="url(#dc99cbb4f-0a71-4fec-b619-fb2643d57e2cd7c35abe-a4d0-4953-a7ca-20c1d52ad1c0)"><path d=" M -2.239581035836866 0.009411876683580456 C -2.2013912611564734 -0.03693197777891144 -2.150007395613712 -0.07226055029277312 -2.0969019592758347 -0.09940733162340687 C -2.065982963466565 -0.1153136758712403 -2.0238166027242146 -0.10189096594956037 -2.0092300139551327 -0.06977691596661972 C -1.9974526684754652 -0.04381826095937602 -1.9921112959079217 -0.017485502036895584 -1.98972811541086 0.009411876683580456 C -1.9921112959079217 0.03635428643089056 -1.9974526684754652 0.06269397320365289 -2.0092300139551327 0.08865262821089681 C -2.0238166027242146 0.12073896679270879 -2.065982963466565 0.13413396531326005 -2.0969019592758347 0.11828304386768385 C -2.150007395613712 0.09110855113592153 -2.2013912611564734 0.055703772268956175 -2.239581035836866 0.009411876683580456" fill="#fffef2" transform="matrix(1,0,0,1,0,0)" fill-rule="nonzero"></path></g></g><g><path d=" M 0.0915 1.0724999999999998 L 0.0915 0.00749999999999984 L 0.5505 0.00749999999999984 Q 0.6285000000000001 0.00749999999999984 0.6945 0.0389999999999997 Q 0.7605000000000001 0.07049999999999979 0.8085 0.1237499999999998 Q 0.8565 0.1769999999999997 0.88275 0.24299999999999977 Q 0.909 0.3089999999999997 0.909 0.3764999999999997 Q 0.909 0.47099999999999975 0.86475 0.5549999999999998 Q 0.8205 0.6389999999999998 0.74175 0.6922499999999998 Q 0.663 0.7454999999999998 0.558 0.7454999999999998 L 0.384 0.7454999999999998 L 0.384 1.0724999999999998 L 0.0915 1.0724999999999998 M 0.384 0.4904999999999998 L 0.5385 0.4904999999999998 Q 0.5565 0.4904999999999998 0.5730000000000001 0.47999999999999976 Q 0.5895 0.4694999999999998 0.60075 0.44399999999999973 Q 0.612 0.41849999999999976 0.612 0.3764999999999997 Q 0.612 0.3314999999999998 0.5992500000000001 0.30674999999999975 Q 0.5865 0.2819999999999998 0.56775 0.27224999999999977 Q 0.549 0.26249999999999973 0.531 0.26249999999999973 L 0.384 0.26249999999999973 L 0.384 0.4904999999999998 M 1.0304787597656249 1.0724999999999998 L 1.0304787597656249 0.00749999999999984 L 1.322978759765625 0.00749999999999984 L 1.322978759765625 0.8174999999999998 L 1.805978759765625 0.8174999999999998 L 1.805978759765625 1.0724999999999998 L 1.0304787597656249 1.0724999999999998 M 2.15851171875 0.00749999999999984 L 2.4855117187499998 0.00749999999999984 L 2.82451171875 1.0724999999999998 L 2.52751171875 1.0724999999999998 L 2.46301171875 0.8639999999999998 L 2.1795117187499997 0.8639999999999998 L 2.11651171875 1.0724999999999998 L 1.81801171875 1.0724999999999998 L 2.15851171875 0.00749999999999984 M 2.41651171875 0.6689999999999998 L 2.32201171875 0.2939999999999998 L 2.22301171875 0.6689999999999998 L 2.41651171875 0.6689999999999998 M 3.0254677734374997 0.00749999999999984 L 3.2159677734375 0.4424999999999998 L 3.4109677734374997 0.00749999999999984 L 3.7289677734374997 0.00749999999999984 L 3.3614677734374996 0.7199999999999998 L 3.3614677734374996 1.0724999999999998 L 3.0704677734374997 1.0724999999999998 L 3.0704677734374997 0.7169999999999999 L 2.7089677734374997 0.00749999999999984 L 3.0254677734374997 0.00749999999999984 M 4.1474912109375 0.00749999999999984 L 4.4159912109374995 0.00749999999999984 L 4.5134912109375 0.33599999999999974 L 4.6124912109375 0.00749999999999984 L 4.8809912109375 0.00749999999999984 L 4.7009912109375 0.5159999999999998 L 4.7774912109375 0.7334999999999998 L 5.0069912109375 0.00749999999999984 L 5.324991210937499 0.00749999999999984 L 4.9229912109375 1.0724999999999998 L 4.6694912109375 1.0724999999999998 L 4.5134912109375 0.6914999999999998 L 4.3589912109375 1.0724999999999998 L 4.1054912109375 1.0724999999999998 L 3.7034912109375 0.00749999999999984 L 4.0199912109375 0.00749999999999984 L 4.250991210937499 0.7334999999999998 L 4.3244912109374996 0.5159999999999998 L 4.1474912109375 0.00749999999999984 M 5.403001464843749 1.0724999999999998 L 5.403001464843749 0.00749999999999984 L 5.892001464843749 0.00749999999999984 Q 5.970001464843749 0.00749999999999984 6.036001464843749 0.0389999999999997 Q 6.102001464843749 0.07049999999999979 6.150001464843749 0.1237499999999998 Q 6.198001464843749 0.1769999999999997 6.224251464843749 0.24299999999999977 Q 6.250501464843749 0.3089999999999997 6.250501464843749 0.3764999999999997 Q 6.250501464843749 0.4379999999999997 6.232501464843749 0.4949999999999998 Q 6.2145014648437495 0.5519999999999998 6.180001464843749 0.5992499999999998 Q 6.145501464843749 0.6464999999999999 6.097501464843749 0.6809999999999998 L 6.322501464843749 1.0724999999999998 L 6.0015014648437495 1.0724999999999998 L 5.8140014648437495 0.7454999999999998 L 5.695501464843749 0.7454999999999998 L 5.695501464843749 1.0724999999999998 L 5.403001464843749 1.0724999999999998 M 5.695501464843749 0.4904999999999998 L 5.880001464843749 0.4904999999999998 Q 5.898001464843749 0.4904999999999998 5.914501464843749 0.47699999999999976 Q 5.9310014648437495 0.4634999999999998 5.942251464843749 0.4379999999999997 Q 5.953501464843749 0.41249999999999976 5.953501464843749 0.3764999999999997 Q 5.953501464843749 0.33899999999999975 5.940751464843749 0.3142499999999998 Q 5.928001464843749 0.28949999999999976 5.909251464843749 0.2759999999999998 Q 5.890501464843749 0.26249999999999973 5.872501464843749 0.26249999999999973 L 5.695501464843749 0.26249999999999973 L 5.695501464843749 0.4904999999999998 M 6.419983154296874 1.0724999999999998 L 6.419983154296874 0.00749999999999984 L 6.712483154296875 0.00749999999999984 L 6.712483154296875 1.0724999999999998 L 6.419983154296874 1.0724999999999998 M 7.360508056640624 1.0799999999999998 Q 7.2570080566406245 1.0799999999999998 7.1632580566406245 1.0432499999999998 Q 7.0695080566406245 1.0064999999999997 6.9975080566406245 0.9352499999999998 Q 6.925508056640624 0.8639999999999998 6.884258056640625 0.7627499999999998 Q 6.843008056640625 0.6614999999999998 6.843008056640625 0.5309999999999998 Q 6.843008056640625 0.41849999999999976 6.885008056640625 0.3224999999999998 Q 6.9270080566406245 0.2264999999999998 7.001258056640625 0.15374999999999972 Q 7.075508056640625 0.08099999999999974 7.174508056640624 0.04049999999999976 Q 7.273508056640624 -2.220446049250313e-16 7.389008056640624 -2.220446049250313e-16 Q 7.533008056640624 -2.220446049250313e-16 7.650008056640624 0.062249999999999694 Q 7.767008056640624 0.12449999999999972 7.824008056640625 0.23249999999999982 L 7.6065080566406245 0.3989999999999998 Q 7.575008056640624 0.33599999999999974 7.512008056640624 0.29774999999999974 Q 7.449008056640625 0.25949999999999973 7.378508056640625 0.25949999999999973 Q 7.3260080566406245 0.25949999999999973 7.282508056640625 0.28049999999999975 Q 7.239008056640625 0.30149999999999977 7.206758056640624 0.33899999999999975 Q 7.174508056640624 0.3764999999999997 7.157258056640624 0.4282499999999998 Q 7.1400080566406245 0.47999999999999976 7.1400080566406245 0.5414999999999998 Q 7.1400080566406245 0.6044999999999998 7.158008056640624 0.6554999999999997 Q 7.176008056640624 0.7064999999999998 7.2082580566406245 0.7432499999999997 Q 7.240508056640625 0.7799999999999998 7.285508056640625 0.8002499999999998 Q 7.330508056640625 0.8204999999999998 7.386008056640624 0.8204999999999998 Q 7.456508056640624 0.8204999999999998 7.521008056640625 0.7852499999999998 Q 7.5855080566406246 0.7499999999999998 7.638008056640625 0.6854999999999998 L 7.638008056640625 0.9704999999999998 Q 7.518008056640625 1.0799999999999998 7.360508056640624 1.0799999999999998 M 7.623008056640624 0.7154999999999998 L 7.426508056640625 0.7154999999999998 L 7.426508056640625 0.5054999999999997 L 7.8645080566406245 0.5054999999999997 L 7.8645080566406245 1.0724999999999998 L 7.623008056640624 1.0724999999999998 L 7.623008056640624 0.7154999999999998 M 8.955028564453125 0.00749999999999984 L 8.955028564453125 1.0724999999999998 L 8.662528564453124 1.0724999999999998 L 8.662528564453124 0.6554999999999997 L 8.305528564453125 0.6554999999999997 L 8.305528564453125 1.0724999999999998 L 8.013028564453125 1.0724999999999998 L 8.013028564453125 0.00749999999999984 L 8.305528564453125 0.00749999999999984 L 8.305528564453125 0.40049999999999975 L 8.662528564453124 0.40049999999999975 L 8.662528564453124 0.00749999999999984 L 8.955028564453125 0.00749999999999984 M 9.972028564453124 0.26249999999999973 L 9.666028564453125 0.26249999999999973 L 9.666028564453125 1.0724999999999998 L 9.373528564453125 1.0724999999999998 L 9.373528564453125 0.26249999999999973 L 9.066028564453125 0.26249999999999973 L 9.066028564453125 0.00749999999999984 L 9.972028564453124 0.00749999999999984 L 9.972028564453124 0.26249999999999973" fill="#869ba7" fill-rule="nonzero"></path></g><g><path d=" M 0.2805 1.9621875 Q 0.22725 1.9621875 0.1815 1.9393125 Q 0.13575 1.9164375 0.10200000000000001 1.8774375 Q 0.06825 1.8384375 0.049875 1.7904375000000001 Q 0.0315 1.7424375 0.0315 1.6914375000000001 Q 0.0315 1.6374375 0.049875 1.5890625 Q 0.06825 1.5406875 0.10125 1.5031875000000001 Q 0.13425 1.4656875 0.17925 1.4439375 Q 0.22425 1.4221875000000002 0.2775 1.4221875000000002 Q 0.35625 1.4221875000000002 0.40575 1.4544375 Q 0.45525 1.4866875 0.48075 1.5384375000000001 L 0.44025000000000003 1.5654375 Q 0.41475 1.5159375000000002 0.372 1.4926875000000002 Q 0.32925 1.4694375000000002 0.27675 1.4694375000000002 Q 0.2325 1.4694375000000002 0.196875 1.4881875 Q 0.16125 1.5069375 0.13575 1.5384375000000001 Q 0.11025 1.5699375 0.097125 1.6096875000000002 Q 0.084 1.6494375000000001 0.084 1.6921875000000002 Q 0.084 1.7371875 0.099 1.7773125 Q 0.114 1.8174375 0.14175000000000001 1.8485625 Q 0.1695 1.8796875 0.205875 1.8973125 Q 0.24225 1.9149375 0.28425 1.9149375 Q 0.333 1.9149375 0.3765 1.8905625000000001 Q 0.42 1.8661875 0.45975 1.8151875 L 0.45975 1.8706875 Q 0.384 1.9621875 0.2805 1.9621875 M 0.4515 1.7371875 L 0.333 1.7371875 L 0.333 1.6966875000000001 L 0.49575 1.6966875000000001 L 0.49575 1.9584375 L 0.4515 1.9584375 L 0.4515 1.7371875 M 0.8216275634765624 1.9621875 Q 0.7586275634765625 1.9621875 0.7151275634765624 1.9396875 Q 0.6716275634765625 1.9171875 0.6461275634765624 1.8793125000000002 Q 0.6206275634765624 1.8414375 0.6090025634765625 1.7934375 Q 0.5973775634765625 1.7454375 0.5973775634765625 1.6944375 L 0.5973775634765625 1.4259375 L 0.6491275634765624 1.4259375 L 0.6491275634765624 1.6944375 Q 0.6491275634765624 1.7356875 0.6577525634765624 1.7754375 Q 0.6663775634765624 1.8151875 0.6858775634765624 1.8466875 Q 0.7053775634765624 1.8781875000000001 0.7383775634765625 1.8965625000000002 Q 0.7713775634765625 1.9149375 0.8208775634765624 1.9149375 Q 0.8718775634765624 1.9149375 0.9052525634765625 1.8958125000000001 Q 0.9386275634765624 1.8766875 0.9577525634765625 1.8451875 Q 0.9768775634765625 1.8136875000000001 0.9851275634765624 1.7743125 Q 0.9933775634765625 1.7349375 0.9933775634765625 1.6944375 L 0.9933775634765625 1.4259375 L 1.0458775634765625 1.4259375 L 1.0458775634765625 1.6944375 Q 1.0458775634765625 1.7476875 1.0338775634765625 1.7964375000000001 Q 1.0218775634765624 1.8451875 0.9952525634765624 1.8819375 Q 0.9686275634765624 1.9186875 0.9258775634765624 1.9404375 Q 0.8831275634765625 1.9621875 0.8216275634765624 1.9621875 M 1.1722562255859375 1.9584375 L 1.1722562255859375 1.4259375 L 1.2247562255859374 1.4259375 L 1.2247562255859374 1.9584375 L 1.1722562255859375 1.9584375 M 1.35937060546875 1.9584375 L 1.35937060546875 1.4259375 L 1.54012060546875 1.4259375 Q 1.6248706054687498 1.4259375 1.68149560546875 1.4615625 Q 1.73812060546875 1.4971875000000001 1.7666206054687499 1.5575625 Q 1.79512060546875 1.6179375 1.79512060546875 1.6914375000000001 Q 1.79512060546875 1.7724375 1.7639956054687498 1.8324375000000002 Q 1.73287060546875 1.8924375 1.67549560546875 1.9254375000000001 Q 1.61812060546875 1.9584375 1.54012060546875 1.9584375 L 1.35937060546875 1.9584375 M 1.7426206054687499 1.6914375000000001 Q 1.7426206054687499 1.6276875 1.7189956054687499 1.5781875 Q 1.6953706054687498 1.5286875 1.65037060546875 1.5005625 Q 1.60537060546875 1.4724375 1.54012060546875 1.4724375 L 1.41187060546875 1.4724375 L 1.41187060546875 1.9119375 L 1.54012060546875 1.9119375 Q 1.60612060546875 1.9119375 1.65112060546875 1.8826875 Q 1.6961206054687499 1.8534375 1.7193706054687499 1.8035625 Q 1.7426206054687499 1.7536875 1.7426206054687499 1.6914375000000001 M 2.2545157470703123 1.9119375 L 2.2545157470703123 1.9584375 L 1.8967657470703123 1.9584375 L 1.8967657470703123 1.4259375 L 2.247765747070312 1.4259375 L 2.247765747070312 1.4724375 L 1.9492657470703123 1.4724375 L 1.9492657470703123 1.6644375 L 2.2095157470703124 1.6644375 L 2.2095157470703124 1.7086875000000001 L 1.9492657470703123 1.7086875000000001 L 1.9492657470703123 1.9119375 L 2.2545157470703123 1.9119375" fill="#f89941" fill-rule="nonzero"></path></g></g><defs><clipPath id="SvgjsClipPath22185"><path d=" M -9.209026131088338 -1.0748078285882314 h 8.809026131088338 v 4.108053157176463 h -8.809026131088338 Z"></path></clipPath><clipPath id="SvgjsClipPath22183d7c35abe-a4d0-4953-a7ca-20c1d52ad1c0"><path d=" M -9.209026131088338 -1.0748078285882314 L -0.40000000000000036 -1.0748078285882314 L -0.40000000000000036 3.0332453285882313 L -9.209026131088338 3.0332453285882313 Z"></path></clipPath><clipPath id="ac99cbb4f-0a71-4fec-b619-fb2643d57e2cd7c35abe-a4d0-4953-a7ca-20c1d52ad1c0"><path d=" M -9.209026131088338 3.0332453285882313 L -0.40002202256532904 3.0332453285882313 L -0.40002202256532904 -1.0748001563991938 L -9.209026131088338 -1.0748001563991938 Z"></path></clipPath><clipPath id="cc99cbb4f-0a71-4fec-b619-fb2643d57e2cd7c35abe-a4d0-4953-a7ca-20c1d52ad1c0"><path d=" M -7.307715724326792 2.43499428139767 L -5.420808318301852 2.43499428139767 L -5.420808318301852 2.725250424669219 L -7.307715724326792 2.725250424669219 Z"></path></clipPath><clipPath id="bc99cbb4f-0a71-4fec-b619-fb2643d57e2cd7c35abe-a4d0-4953-a7ca-20c1d52ad1c0"><path d=" M -9.209026131088338 3.0332453285882313 L -0.40002202256532904 3.0332453285882313 L -0.40002202256532904 -1.0748001563991938 L -9.209026131088338 -1.0748001563991938 Z"></path></clipPath><clipPath id="dc99cbb4f-0a71-4fec-b619-fb2643d57e2cd7c35abe-a4d0-4953-a7ca-20c1d52ad1c0"><path d=" M -9.209026131088338 3.0332453285882313 L -0.40002202256532904 3.0332453285882313 L -0.40002202256532904 -1.0748001563991938 L -9.209026131088338 -1.0748001563991938 Z"></path></clipPath><clipPath id="ec99cbb4f-0a71-4fec-b619-fb2643d57e2cd7c35abe-a4d0-4953-a7ca-20c1d52ad1c0"><path d=" M -3.1938508451023546 -0.2673453503131842 L -2.4984332337793953 -0.2673453503131842 L -2.4984332337793953 -0.11807442420867997 L -3.1938508451023546 -0.11807442420867997 Z"></path></clipPath><clipPath id="fc99cbb4f-0a71-4fec-b619-fb2643d57e2cd7c35abe-a4d0-4953-a7ca-20c1d52ad1c0"><path d=" M -3.1938508451023546 -0.6274307605037381 L -2.4984332337793953 -0.6274307605037381 L -2.4984332337793953 -0.38750198560692195 L -3.1938508451023546 -0.38750198560692195 Z"></path></clipPath></defs></svg>